<svg width="124" height="36" viewBox="0 0 124 36" fill="none" xmlns="http://www.w3.org/2000/svg">
<path d="M13.0811 19.9805C14.892 20.2628 16.8717 21.1115 18.4565 20.32C20.0404 19.5276 21.0589 15.7933 21.6244 15.2841C22.1908 14.7749 23.5487 15.3976 25.6418 15.8496C26.9213 16.1264 28.4481 14.6882 29.3696 13.6144L30.793 13.3838C30.793 13.3838 28.5286 16.8566 26.5066 16.8081L24.9024 16.4581V16.4586L24.9021 16.4585C23.534 16.0978 22.618 15.8109 22.178 16.2066C21.7739 16.5701 21.1392 18.5802 20.2315 19.987C20.2315 19.9871 20.2314 19.9871 20.2314 19.9872C20.201 19.9506 20.1844 19.9293 20.1844 19.9293L18.8597 21.2074C18.8597 21.2074 18.8845 21.2339 18.9297 21.2804C17.3587 22.0053 15.4151 21.1807 13.6347 20.903C13.143 20.8265 12.4973 20.9261 11.7971 21.1143L11.6265 20.0839C12.1577 19.9658 12.6586 19.9141 13.0811 19.9805Z" fill="#3C5468"/>
<path d="M9.95848 21.7268C8.79614 22.1649 7.71405 22.6345 7.12643 22.7581C7.14026 22.4048 7.10152 22.0127 7.05078 21.6188C7.57015 21.5782 8.62363 21.1013 9.77214 20.6677L9.95848 21.7268Z" fill="#3C5468"/>
<path d="M6.46286 24.5774C6.46286 24.5773 6.46296 24.5773 6.46296 24.5772C8.44696 26.0252 10.1211 26.5048 10.8272 26.653L9.95819 21.7269L9.77185 20.6679L9.48495 19.0415C10.1962 19.1328 10.9296 19.2528 11.4932 19.2869L11.6261 20.0839L11.7967 21.1143L12.7358 26.7563V26.7566L12.8241 27.2907L12.8244 27.2923L12.8687 27.5561L11.103 28.2175L11.0756 28.0662L11.0753 28.0644V28.0626L11.0126 27.7028V27.7019L10.9969 27.6142L10.9968 27.6135L10.7608 27.7309C10.6235 27.7992 10.5676 27.9659 10.6359 28.1032L10.6734 28.1785C10.494 28.1507 10.1848 28.1026 9.65082 28.0195C7.57807 27.6972 5.496 26.1498 4.27637 25.0895C4.34758 25.1232 4.42323 25.1578 4.50349 25.1916C5.39738 25.57 6.01914 25.2268 6.46286 24.5774Z" fill="#E84C3D"/>
<path d="M24.354 24.6564C24.3704 24.643 24.388 24.631 24.4071 24.6216L24.4046 24.6622L24.354 24.6564Z" fill="#E84C3D"/>
<path d="M20.1843 19.9294C20.1843 19.9294 20.2009 19.9507 20.2312 19.9873C20.3832 20.1707 20.9142 20.7786 21.822 21.4783C22.8123 22.2417 23.7234 22.7628 24.5032 23.1173L24.4285 24.2884L24.1275 24.3064C23.9744 24.3155 23.8577 24.4471 23.8669 24.6001C21.3056 23.6393 19.3169 21.6795 18.9293 21.2805C18.8841 21.234 18.8594 21.2075 18.8594 21.2075L20.1843 19.9294Z" fill="#E84C3D"/>
<path d="M13.3494 28.329L12.859 27.3434C12.8494 27.324 12.8373 27.3067 12.8241 27.2907L12.7358 26.7566C12.859 26.7267 12.9907 26.7841 13.0496 26.9023L13.8161 28.443C13.8844 28.5803 13.8284 28.747 13.6912 28.8152L13.469 28.9257L13.3194 28.6222C13.3826 28.5406 13.3984 28.4275 13.3494 28.329Z" fill="#2D3E50"/>
<path d="M10.761 27.731L10.9971 27.6135L10.9972 27.6143L11.0129 27.7019V27.7028L11.0756 28.0626V28.0644L11.0759 28.0662C11.0709 28.1165 11.0787 28.1687 11.1029 28.2172L11.5933 29.2028L11.8447 29.7341L11.7749 29.7687C11.6376 29.837 11.4709 29.7811 11.4026 29.6438L10.6736 28.1786L10.636 28.1033C10.5678 27.966 10.6237 27.7993 10.761 27.731Z" fill="#2D3E50"/>
<path d="M13.2457 28.4719L13.3197 28.622L13.4693 28.9255L16.2756 34.618C16.508 35.0896 16.3171 35.6604 15.8476 35.8971C15.3668 36.1395 14.7807 35.9381 14.5503 35.4514L11.8446 29.7338L11.5933 29.2025L13.2457 28.4719Z" fill="#E84C3D"/>
<path d="M24.9023 16.4585V16.458L26.5065 16.808L26.5096 16.8087L25.9406 24.1978L24.4531 24.2868L24.9023 16.4585Z" fill="#E84C3D"/>
<path d="M24.5126 24.5939L25.9157 24.51L24.4385 24.6098C24.462 24.6017 24.4864 24.5954 24.5126 24.5939Z" fill="#E84C3D"/>
<path d="M24.1273 24.3062L24.4283 24.2883L24.4529 24.2868L25.9403 24.1979L26.2643 24.1785C26.4173 24.1693 26.5489 24.286 26.558 24.4391L26.6607 26.1569C26.6698 26.3099 26.5532 26.4415 26.4001 26.4506L26.1524 26.4654L26.1334 26.1275C26.2234 26.0772 26.2822 25.9792 26.2756 25.8694L26.2099 24.7705C26.2008 24.6175 26.0693 24.5008 25.9162 24.5099H25.9155L24.5124 24.5938C24.4863 24.5954 24.4618 24.6016 24.4383 24.6098C24.4278 24.6134 24.417 24.6167 24.407 24.6216C24.3877 24.631 24.3702 24.643 24.3539 24.6563C24.2872 24.7109 24.2462 24.795 24.2518 24.8875L24.3174 25.9864L24.341 26.5736L24.2631 26.5783C24.1101 26.5874 23.9785 26.4707 23.9694 26.3177L23.8667 24.5999C23.8576 24.4469 23.9742 24.3154 24.1273 24.3062Z" fill="#2D3E50"/>
<path d="M26.1239 25.9604L26.1332 26.1276L26.1522 26.4655L26.5078 32.8022C26.5372 33.3271 26.1381 33.7777 25.6135 33.8119C25.0761 33.8469 24.6155 33.4323 24.594 32.8943L24.3409 26.5739L24.3174 25.9866L26.1239 25.9604Z" fill="#E84C3D"/>
<path d="M7.05037 21.6189C6.90554 20.4888 6.66569 19.3431 7.29852 19.0581C7.74316 18.8579 8.59647 18.9261 9.48483 19.0415L9.77173 20.6678C8.62322 21.1014 7.56973 21.5783 7.05037 21.6189Z" fill="#2D3E50"/>
<path d="M4.50895 22.7886C4.63533 22.39 4.75526 21.8836 4.86503 21.2424C5.08459 19.9583 5.43052 18.8089 7.12791 18.4132C7.79395 18.2582 8.6242 18.3375 9.38802 18.4916C9.67215 18.5488 9.94705 18.6161 10.2007 18.6862C10.5974 18.7951 11.0061 18.8163 11.4009 18.7536C11.9203 18.6742 12.4147 18.4519 12.8262 18.1014L14.708 16.4962C15.1896 16.0848 15.7763 15.8136 16.4017 15.7121L17.8002 15.4861H17.8012C17.8012 15.4861 17.5502 16.2149 15.9848 16.5977C14.4193 16.9814 13.1306 18.9943 12.2256 19.2499C12.0503 19.2997 11.7967 19.3052 11.4932 19.2868C10.9295 19.2526 10.1961 19.1327 9.48488 19.0414C8.59652 18.9261 7.74321 18.8578 7.29857 19.058C6.66574 19.343 6.90559 20.4888 7.05042 21.6188C7.10116 22.0127 7.1399 22.4048 7.12607 22.7581C7.11776 22.9813 7.08824 23.188 7.02736 23.3706C6.87884 23.817 6.69535 24.2385 6.46288 24.5771C6.46279 24.5772 6.46279 24.5772 6.46279 24.5773C6.01907 25.2267 5.39731 25.5699 4.50341 25.1916C4.42316 25.1579 4.34751 25.1233 4.2763 25.0895C4.27547 25.0892 4.27454 25.0887 4.27371 25.0883C3.14827 24.5524 3.19163 24.0671 3.19163 24.0671C3.5098 24.2553 4.04494 24.2636 4.50895 22.7886Z" fill="#3C5468"/>
<path d="M25.6415 15.8497C23.5483 15.3977 22.1904 14.775 21.624 15.2842C21.0585 15.7934 20.0401 19.5277 18.4562 20.3201C16.8713 21.1116 14.8916 20.2629 13.0808 19.9806C12.6583 19.9142 12.1574 19.9659 11.626 20.084L11.4932 19.2869C11.7967 19.3054 12.0504 19.2998 12.2256 19.25C13.1306 18.9945 14.4193 16.9816 15.9848 16.5978C17.5503 16.215 17.8012 15.4862 17.8012 15.4862L29.3693 13.6145C28.4478 14.6883 26.921 16.1265 25.6415 15.8497Z" fill="#2D3E50"/>
<path d="M0 14.2814C0 17.8727 1.08578 21.1798 2.90955 23.8098C2.90955 23.8098 3.0184 23.9648 3.19183 24.0672C3.51009 24.2554 4.04514 24.2637 4.50915 22.7886C4.63553 22.3901 4.75546 21.8837 4.86523 21.2425C5.08479 19.9584 5.43072 18.809 7.12811 18.4132C7.79415 18.2583 8.6244 18.3376 9.38822 18.4917C9.67235 18.5489 9.94725 18.6162 10.2009 18.6863C10.5976 18.7952 11.0063 18.8164 11.4011 18.7536C11.9205 18.6743 12.4149 18.452 12.8264 18.1014L14.7082 16.4963C15.1898 16.0849 15.7765 15.8137 16.4019 15.7122L17.8004 15.4862H17.8014L29.3694 13.6144L30.7929 13.3838C31.2366 13.3119 31.5225 12.8718 31.4072 12.4373C28.7468 2.35447 20.3308 -0.633486 14.6612 0.107277C5.5452 1.29914 0 5.70958 0 14.2814ZM26.6632 6.81169C26.6474 6.558 26.7104 6.36031 26.8558 6.28347C27.1358 6.13559 27.6128 6.48927 27.9214 7.07349C28.23 7.65761 28.2531 8.25105 27.9732 8.39893C27.8277 8.47577 27.629 8.41627 27.4283 8.26027C27.2361 8.14681 27.0312 7.92052 26.8756 7.62588C26.7199 7.33124 26.6485 7.03447 26.6632 6.81169ZM21.861 7.98279C21.8207 7.57043 21.9426 7.15107 22.2369 6.83004C22.8032 6.21234 23.7877 6.19325 24.4359 6.78752C25.084 7.38169 25.1503 8.36415 24.5841 8.98195C24.2898 9.30298 23.8825 9.46072 23.4682 9.45638C23.0725 9.51358 22.6472 9.39485 22.3204 9.09514C21.9935 8.79542 21.8383 8.38195 21.861 7.98279ZM9.85178 17.7683C9.85178 17.3395 10.1995 16.9918 10.6283 16.9918C11.0572 16.9918 11.4049 17.3395 11.4049 17.7683C11.4049 18.1972 11.0572 18.5449 10.6283 18.5449C10.1994 18.5449 9.85178 18.1972 9.85178 17.7683ZM3.15742 22.3001C3.15742 21.911 3.37199 21.5956 3.63656 21.5956C3.90123 21.5956 4.11571 21.911 4.11571 22.3001C4.11571 22.6892 3.90114 23.0046 3.63656 23.0046C3.3719 23.0047 3.15742 22.6893 3.15742 22.3001Z" fill="#1BBC9B"/>
<path d="M0 14.2814C0 17.8727 1.08578 21.1798 2.90955 23.8098C2.90955 23.8098 3.0184 23.9648 3.19183 24.0672C3.51009 24.2554 4.04514 24.2637 4.50915 22.7886C4.63553 22.3901 4.75546 21.8837 4.86523 21.2425C5.08479 19.9584 5.43072 18.809 7.12811 18.4132C7.79415 18.2583 8.6244 18.3376 9.38822 18.4917C9.67235 18.5489 9.94725 18.6162 10.2009 18.6863C10.5976 18.7952 11.0063 18.8164 11.4011 18.7536C11.9205 18.6743 12.4149 18.452 12.8264 18.1014L14.7082 16.4963C15.1898 16.0849 15.7765 15.8137 16.4019 15.7122L17.8004 15.4862H17.8014L29.3694 13.6144L30.7929 13.3838C31.2366 13.3119 31.5225 12.8718 31.4072 12.4373C28.7468 2.35447 20.3308 -0.633486 14.6612 0.107277C5.5452 1.29914 0 5.70958 0 14.2814ZM26.6632 6.81169C26.6474 6.558 26.7104 6.36031 26.8558 6.28347C27.1358 6.13559 27.6128 6.48927 27.9214 7.07349C28.23 7.65761 28.2531 8.25105 27.9732 8.39893C27.8277 8.47577 27.629 8.41627 27.4283 8.26027C27.2361 8.14681 27.0312 7.92052 26.8756 7.62588C26.7199 7.33124 26.6485 7.03447 26.6632 6.81169ZM21.861 7.98279C21.8207 7.57043 21.9426 7.15107 22.2369 6.83004C22.8032 6.21234 23.7877 6.19325 24.4359 6.78752C25.084 7.38169 25.1503 8.36415 24.5841 8.98195C24.2898 9.30298 23.8825 9.46072 23.4682 9.45638C23.0725 9.51358 22.6472 9.39485 22.3204 9.09514C21.9935 8.79542 21.8383 8.38195 21.861 7.98279ZM9.85178 17.7683C9.85178 17.3395 10.1995 16.9918 10.6283 16.9918C11.0572 16.9918 11.4049 17.3395 11.4049 17.7683C11.4049 18.1972 11.0572 18.5449 10.6283 18.5449C10.1994 18.5449 9.85178 18.1972 9.85178 17.7683ZM3.15742 22.3001C3.15742 21.911 3.37199 21.5956 3.63656 21.5956C3.90123 21.5956 4.11571 21.911 4.11571 22.3001C4.11571 22.6892 3.90114 23.0046 3.63656 23.0046C3.3719 23.0047 3.15742 22.6893 3.15742 22.3001Z" fill="#1BBC9B"/>
<path d="M11.513 3.17267C10.5435 6.21008 8.27857 9.10191 5.12853 10.0279C3.57228 10.4854 2.02064 10.4263 0.531738 10.0405C1.91797 4.96222 5.95849 1.92564 11.9314 0.586182C11.9453 1.46015 11.7753 2.35119 11.513 3.17267Z" fill="#2D3E50"/>
<path d="M9.85205 17.7683C9.85205 18.1971 10.1997 18.5448 10.6286 18.5448C11.0575 18.5448 11.4052 18.1971 11.4052 17.7683C11.4052 17.3394 11.0575 16.9917 10.6286 16.9917C10.1996 16.9917 9.85205 17.3394 9.85205 17.7683ZM10.2034 17.7043C10.2034 17.4639 10.3984 17.269 10.6388 17.269C10.8792 17.269 11.0741 17.4639 11.0741 17.7043C11.0741 17.9447 10.8792 18.1397 10.6388 18.1397C10.3983 18.1396 10.2034 17.9447 10.2034 17.7043Z" fill="#2D3E50"/>
<path d="M10.6384 18.1397C10.8789 18.1397 11.0738 17.9448 11.0738 17.7044C11.0738 17.4639 10.8789 17.269 10.6384 17.269C10.398 17.269 10.2031 17.4639 10.2031 17.7044C10.2031 17.9448 10.398 18.1397 10.6384 18.1397Z" fill="white"/>
<path d="M3.15723 22.3002C3.15723 22.6893 3.3718 23.0047 3.63637 23.0047C3.90103 23.0047 4.11551 22.6893 4.11551 22.3002C4.11551 21.9111 3.90094 21.5957 3.63637 21.5957C3.37171 21.5957 3.15723 21.9111 3.15723 22.3002ZM3.27208 22.3592C3.27208 22.1393 3.40215 21.9612 3.56257 21.9612C3.72299 21.9612 3.85306 22.1394 3.85306 22.3592C3.85306 22.579 3.72299 22.7571 3.56257 22.7571C3.40215 22.7571 3.27208 22.579 3.27208 22.3592Z" fill="#2D3E50"/>
<path d="M3.56295 22.7571C3.72339 22.7571 3.85345 22.5789 3.85345 22.3591C3.85345 22.1394 3.72339 21.9612 3.56295 21.9612C3.40252 21.9612 3.27246 22.1394 3.27246 22.3591C3.27246 22.5789 3.40252 22.7571 3.56295 22.7571Z" fill="white"/>
<path d="M22.2369 6.83005C22.8032 6.21235 23.7877 6.19325 24.4359 6.78752C25.084 7.3817 25.1503 8.36416 24.5841 8.98196C24.2898 9.30298 23.8826 9.46072 23.4683 9.45639C23.7542 9.41506 24.0247 9.2826 24.2312 9.05741C24.7235 8.52043 24.6661 7.66666 24.1031 7.15053C23.5401 6.63439 22.6846 6.65127 22.1924 7.18825C21.9859 7.41344 21.8773 7.69452 21.861 7.98289C21.8207 7.57045 21.9426 7.15099 22.2369 6.83005Z" fill="#16A086"/>
<path d="M24.1031 7.15049C24.6661 7.66663 24.7235 8.52039 24.2311 9.05737C24.0247 9.28255 23.7541 9.41503 23.4682 9.45635C23.0725 9.51355 22.6472 9.39482 22.3204 9.0951C21.9935 8.79539 21.8384 8.38202 21.8611 7.98285C21.8774 7.69448 21.9859 7.41349 22.1924 7.18822C22.6846 6.65124 23.5401 6.63435 24.1031 7.15049Z" fill="#2D3E50"/>
<path d="M26.8557 6.28362C27.1357 6.13575 27.6127 6.48943 27.9213 7.07364C28.2298 7.65777 28.253 8.25121 27.973 8.39909C27.8275 8.47593 27.6288 8.41643 27.4282 8.26043C27.567 8.34244 27.6993 8.36597 27.8013 8.3121C28.0447 8.18359 28.0248 7.66801 27.7567 7.16064C27.4887 6.65326 27.0741 6.34608 26.8308 6.47467C26.7288 6.52854 26.6736 6.65114 26.663 6.81203C26.6473 6.55815 26.7102 6.36047 26.8557 6.28362Z" fill="#16A086"/>
<path d="M26.8307 6.4743C27.0741 6.3458 27.4886 6.6529 27.7566 7.16027C28.0246 7.66765 28.0446 8.18323 27.8013 8.31173C27.6992 8.3656 27.5669 8.34208 27.4281 8.26007C27.2359 8.1466 27.031 7.92032 26.8753 7.62567C26.7197 7.33112 26.6484 7.03426 26.663 6.81157C26.6735 6.65078 26.7287 6.52818 26.8307 6.4743Z" fill="#2D3E50"/>
<path d="M37.8211 28.2915V8.16436H42.0765V16.4688H50.7151V8.16436H54.9606V28.2915H50.7151V19.9773H42.0765V28.2915H37.8211ZM65.2699 28.5863C63.7171 28.5863 62.3806 28.2718 61.2602 27.6429C60.1464 27.0074 59.2881 26.1098 58.6853 24.9501C58.0826 23.7839 57.7812 22.4047 57.7812 20.8126C57.7812 19.2598 58.0826 17.8971 58.6853 16.7243C59.2881 15.5515 60.1366 14.6375 61.2307 13.9824C62.3314 13.3272 63.6221 12.9996 65.1028 12.9996C66.0987 12.9996 67.0258 13.1601 67.8841 13.4811C68.7489 13.7956 69.5024 14.2706 70.1444 14.9062C70.7931 15.5417 71.2976 16.341 71.6579 17.3041C72.0183 18.2607 72.1984 19.381 72.1984 20.6652V21.815H59.4519V19.2205H68.2575C68.2575 18.6178 68.1265 18.0838 67.8644 17.6186C67.6023 17.1534 67.2387 16.7898 66.7735 16.5277C66.3149 16.2591 65.7809 16.1248 65.1716 16.1248C64.5361 16.1248 63.9726 16.2722 63.4813 16.567C62.9964 16.8553 62.6164 17.2452 62.3412 17.7365C62.0661 18.2214 61.9252 18.7619 61.9186 19.3581V21.8249C61.9186 22.5718 62.0562 23.2171 62.3314 23.7609C62.6131 24.3047 63.0095 24.724 63.5206 25.0189C64.0316 25.3137 64.6376 25.4611 65.3387 25.4611C65.8039 25.4611 66.2297 25.3956 66.6163 25.2646C67.0029 25.1335 67.3337 24.937 67.6089 24.6749C67.8841 24.4128 68.0937 24.0918 68.2379 23.7118L72.11 23.9673C71.9134 24.8977 71.5105 25.7101 70.9012 26.4046C70.2984 27.0925 69.5187 27.6298 68.5622 28.0163C67.6122 28.3963 66.5147 28.5863 65.2699 28.5863ZM81.8099 28.5863C80.2572 28.5863 78.9206 28.2718 77.8002 27.6429C76.6864 27.0074 75.8281 26.1098 75.2254 24.9501C74.6226 23.7839 74.3212 22.4047 74.3212 20.8126C74.3212 19.2598 74.6226 17.8971 75.2254 16.7243C75.8281 15.5515 76.6766 14.6375 77.7707 13.9824C78.8714 13.3272 80.1622 12.9996 81.6429 12.9996C82.6387 12.9996 83.5658 13.1601 84.4241 13.4811C85.2889 13.7956 86.0424 14.2706 86.6845 14.9062C87.3331 15.5417 87.8376 16.341 88.1979 17.3041C88.5583 18.2607 88.7385 19.381 88.7385 20.6652V21.815H75.9919V19.2205H84.7976C84.7976 18.6178 84.6665 18.0838 84.4044 17.6186C84.1424 17.1534 83.7788 16.7898 83.3136 16.5277C82.8549 16.2591 82.321 16.1248 81.7117 16.1248C81.0761 16.1248 80.5127 16.2722 80.0213 16.567C79.5365 16.8553 79.1565 17.2452 78.8813 17.7365C78.6061 18.2214 78.4652 18.7619 78.4587 19.3581V21.8249C78.4587 22.5718 78.5963 23.2171 78.8714 23.7609C79.1532 24.3047 79.5496 24.724 80.0606 25.0189C80.5716 25.3137 81.1777 25.4611 81.8787 25.4611C82.3439 25.4611 82.7698 25.3956 83.1563 25.2646C83.5429 25.1335 83.8738 24.937 84.1489 24.6749C84.4241 24.4128 84.6338 24.0918 84.7779 23.7118L88.65 23.9673C88.4535 24.8977 88.0505 25.7101 87.4412 26.4046C86.8384 27.0925 86.0588 27.6298 85.1022 28.0163C84.1522 28.3963 83.0548 28.5863 81.8099 28.5863ZM95.6572 8.16436V28.2915H91.4706V8.16436H95.6572ZM99.0109 28.2915V13.1961H103.001V15.8595H103.178C103.492 14.975 104.016 14.2772 104.75 13.7662C105.484 13.2551 106.362 12.9996 107.384 12.9996C108.419 12.9996 109.3 13.2584 110.028 13.776C110.755 14.287 111.24 14.9815 111.482 15.8595H111.639C111.947 14.9946 112.504 14.3034 113.31 13.7858C114.123 13.2617 115.082 12.9996 116.19 12.9996C117.598 12.9996 118.742 13.4484 119.62 14.346C120.504 15.237 120.946 16.5015 120.946 18.1395V28.2915H116.77V18.965C116.77 18.1264 116.547 17.4974 116.101 17.0781C115.656 16.6588 115.099 16.4491 114.431 16.4491C113.671 16.4491 113.078 16.6915 112.652 17.1764C112.226 17.6546 112.013 18.2869 112.013 19.0731V28.2915H107.954V18.8766C107.954 18.1362 107.741 17.5465 107.315 17.1076C106.896 16.6686 106.342 16.4491 105.654 16.4491C105.189 16.4491 104.77 16.567 104.396 16.8029C104.03 17.0322 103.738 17.3565 103.522 17.7759C103.306 18.1886 103.197 18.6735 103.197 19.2304V28.2915H99.0109Z" fill="#2D3E50"/>
</svg>
