<svg width="1330" height="391" viewBox="0 0 1330 391" fill="none" xmlns="http://www.w3.org/2000/svg">
<path d="M141.8 216.593C161.43 219.653 182.89 228.853 200.07 220.273C217.24 211.683 228.28 171.203 234.41 165.683C240.55 160.163 255.27 166.913 277.96 171.813C291.83 174.813 308.38 159.223 318.37 147.583L333.8 145.083C333.8 145.083 309.253 182.729 287.334 182.203L269.944 178.409V178.414L269.941 178.413C255.111 174.503 245.181 171.393 240.411 175.683C236.031 179.623 229.151 201.413 219.311 216.663C219.311 216.664 219.31 216.664 219.31 216.665C218.981 216.268 218.801 216.038 218.801 216.038L204.441 229.892C204.441 229.892 204.709 230.18 205.199 230.684C188.169 238.542 167.101 229.603 147.801 226.593C142.471 225.763 135.471 226.843 127.881 228.883L126.031 217.713C131.79 216.433 137.22 215.873 141.8 216.593Z" fill="#3C5468"/>
<path d="M107.95 235.523C95.3502 240.273 83.6202 245.363 77.2502 246.703C77.4002 242.873 76.9802 238.623 76.4302 234.353C82.0602 233.913 93.4802 228.743 105.93 224.043L107.95 235.523Z" fill="#3C5468"/>
<path d="M70.0599 266.423C70.0599 266.422 70.0609 266.422 70.0609 266.421C91.5679 282.118 109.716 287.316 117.37 288.923L107.95 235.523L105.93 224.043L102.82 206.413C110.53 207.403 118.48 208.703 124.59 209.073L126.03 217.713L127.88 228.883L138.06 290.043V290.046L139.017 295.836L139.02 295.853L139.5 298.713L120.36 305.883L120.063 304.242L120.06 304.223V304.203L119.38 300.303V300.293L119.21 299.343L119.209 299.335L116.65 300.608C115.162 301.348 114.556 303.155 115.296 304.643L115.703 305.46C113.758 305.158 110.407 304.637 104.618 303.736C82.1489 300.242 59.5789 283.468 46.3579 271.974C47.1299 272.34 47.9499 272.715 48.8199 273.081C58.5099 277.183 65.2499 273.463 70.0599 266.423Z" fill="#E84C3D"/>
<path d="M264.002 267.28C264.18 267.135 264.37 267.005 264.578 266.903L264.55 267.343L264.002 267.28Z" fill="#E84C3D"/>
<path d="M218.8 216.038C218.8 216.038 218.98 216.268 219.309 216.665C220.957 218.653 226.713 225.243 236.553 232.828C247.288 241.103 257.165 246.752 265.618 250.595L264.808 263.29L261.545 263.485C259.886 263.584 258.621 265.01 258.72 266.669C230.956 256.253 209.398 235.009 205.196 230.684C204.706 230.18 204.438 229.892 204.438 229.892L218.8 216.038Z" fill="#E84C3D"/>
<path d="M144.711 307.091L139.395 296.407C139.291 296.197 139.16 296.009 139.017 295.836L138.06 290.046C139.395 289.722 140.823 290.344 141.461 291.626L149.77 308.327C150.511 309.815 149.904 311.622 148.416 312.362L146.008 313.56L144.386 310.27C145.071 309.385 145.242 308.159 144.711 307.091Z" fill="#2D3E50"/>
<path d="M116.651 300.608L119.21 299.335L119.211 299.343L119.381 300.293V300.303L120.061 304.203V304.223L120.064 304.242C120.01 304.787 120.095 305.353 120.357 305.879L125.673 316.563L128.398 322.322L127.641 322.698C126.153 323.438 124.346 322.832 123.606 321.344L115.703 305.461L115.296 304.644C114.556 303.156 115.162 301.349 116.651 300.608Z" fill="#2D3E50"/>
<path d="M143.585 308.642L144.387 310.269L146.009 313.559L176.429 375.267C178.949 380.379 176.879 386.566 171.79 389.132C166.578 391.76 160.224 389.577 157.727 384.301L128.397 322.321L125.672 316.562L143.585 308.642Z" fill="#E84C3D"/>
<path d="M269.944 178.414V178.409L287.334 182.203L287.368 182.21L281.199 262.31L265.075 263.274L269.944 178.414Z" fill="#E84C3D"/>
<path d="M265.72 266.602L280.93 265.693L264.917 266.775C265.172 266.687 265.437 266.619 265.72 266.602Z" fill="#E84C3D"/>
<path d="M261.547 263.485L264.81 263.29L265.076 263.274L281.2 262.31L284.712 262.1C286.371 262.001 287.797 263.266 287.896 264.925L289.009 283.546C289.108 285.205 287.844 286.631 286.184 286.73L283.499 286.891L283.293 283.228C284.269 282.682 284.906 281.62 284.835 280.43L284.123 268.518C284.024 266.859 282.598 265.594 280.939 265.693H280.931L265.721 266.602C265.438 266.619 265.173 266.687 264.918 266.775C264.804 266.815 264.687 266.85 264.579 266.903C264.37 267.005 264.18 267.135 264.003 267.28C263.28 267.871 262.836 268.783 262.896 269.786L263.608 281.698L263.863 288.064L263.019 288.114C261.36 288.213 259.934 286.948 259.835 285.289L258.722 266.668C258.623 265.01 259.887 263.584 261.547 263.485Z" fill="#2D3E50"/>
<path d="M283.191 281.416L283.292 283.228L283.498 286.891L287.352 355.582C287.671 361.272 283.345 366.156 277.658 366.527C271.833 366.906 266.84 362.412 266.607 356.58L263.863 288.066L263.608 281.7L283.191 281.416Z" fill="#E84C3D"/>
<path d="M76.4301 234.353C74.8601 222.103 72.2601 209.683 79.1201 206.593C83.9401 204.423 93.1901 205.163 102.82 206.413L105.93 224.043C93.4801 228.743 82.0601 233.913 76.4301 234.353Z" fill="#2D3E50"/>
<path d="M48.881 247.033C50.251 242.713 51.551 237.223 52.741 230.273C55.121 216.353 58.871 203.893 77.271 199.603C84.491 197.923 93.491 198.783 101.771 200.453C104.851 201.073 107.831 201.803 110.581 202.563C114.881 203.743 119.311 203.973 123.591 203.293C129.221 202.433 134.581 200.023 139.041 196.223L159.441 178.823C164.661 174.363 171.021 171.423 177.801 170.323L192.961 167.873H192.971C192.971 167.873 190.251 175.773 173.281 179.923C156.311 184.083 142.341 205.903 132.531 208.673C130.631 209.213 127.881 209.273 124.591 209.073C118.481 208.703 110.531 207.403 102.821 206.413C93.191 205.163 83.941 204.423 79.121 206.593C72.261 209.683 74.861 222.103 76.431 234.353C76.981 238.623 77.401 242.873 77.251 246.703C77.161 249.123 76.841 251.363 76.181 253.343C74.571 258.182 72.582 262.751 70.062 266.421C70.061 266.422 70.061 266.422 70.061 266.423C65.251 273.463 58.511 277.183 48.821 273.083C47.951 272.717 47.131 272.342 46.359 271.976C46.35 271.972 46.34 271.967 46.331 271.963C34.131 266.153 34.601 260.893 34.601 260.893C38.05 262.933 43.851 263.023 48.881 247.033Z" fill="#3C5468"/>
<path d="M277.96 171.813C255.27 166.913 240.55 160.163 234.41 165.683C228.28 171.203 217.24 211.683 200.07 220.273C182.89 228.853 161.43 219.653 141.8 216.593C137.22 215.873 131.79 216.433 126.03 217.713L124.59 209.073C127.88 209.273 130.63 209.213 132.53 208.673C142.34 205.903 156.31 184.083 173.28 179.923C190.25 175.773 192.97 167.873 192.97 167.873L318.37 147.583C308.381 159.223 291.83 174.813 277.96 171.813Z" fill="#2D3E50"/>
<path d="M0 154.813C0 193.743 11.77 229.593 31.54 258.103C31.54 258.103 32.72 259.783 34.6 260.893C38.05 262.933 43.85 263.023 48.88 247.033C50.25 242.713 51.55 237.223 52.74 230.273C55.12 216.353 58.87 203.893 77.27 199.603C84.49 197.923 93.49 198.783 101.77 200.453C104.85 201.073 107.83 201.803 110.58 202.563C114.88 203.743 119.31 203.973 123.59 203.293C129.22 202.433 134.58 200.023 139.04 196.223L159.44 178.823C164.66 174.363 171.02 171.423 177.8 170.323L192.96 167.873H192.97L318.37 147.583L333.8 145.083C338.61 144.303 341.71 139.533 340.46 134.823C311.62 25.5229 220.39 -6.8671 158.93 1.1629C60.111 14.0829 0 61.8929 0 154.813ZM289.034 73.8399C288.863 71.0899 289.545 68.9469 291.122 68.1139C294.157 66.5109 299.328 70.3449 302.673 76.6779C306.018 83.0099 306.269 89.4429 303.234 91.0459C301.657 91.8789 299.503 91.2338 297.328 89.5428C295.244 88.3128 293.023 85.8599 291.336 82.6659C289.649 79.4719 288.875 76.2549 289.034 73.8399ZM236.977 86.5349C236.54 82.0649 237.862 77.5189 241.052 74.0389C247.191 67.3429 257.863 67.1359 264.889 73.5779C271.915 80.0189 272.634 90.6689 266.496 97.3659C263.306 100.846 258.891 102.556 254.4 102.509C250.11 103.129 245.5 101.842 241.957 98.5929C238.413 95.3439 236.731 90.8619 236.977 86.5349ZM106.795 192.612C106.795 187.963 110.564 184.194 115.213 184.194C119.862 184.194 123.631 187.963 123.631 192.612C123.631 197.261 119.862 201.03 115.213 201.03C110.563 201.03 106.795 197.261 106.795 192.612ZM34.227 241.737C34.227 237.519 36.553 234.1 39.421 234.1C42.29 234.1 44.615 237.519 44.615 241.737C44.615 245.955 42.289 249.374 39.421 249.374C36.552 249.375 34.227 245.956 34.227 241.737Z" fill="#1BBC9B"/>
<path d="M0 154.813C0 193.743 11.77 229.593 31.54 258.103C31.54 258.103 32.72 259.783 34.6 260.893C38.05 262.933 43.85 263.023 48.88 247.033C50.25 242.713 51.55 237.223 52.74 230.273C55.12 216.353 58.87 203.893 77.27 199.603C84.49 197.923 93.49 198.783 101.77 200.453C104.85 201.073 107.83 201.803 110.58 202.563C114.88 203.743 119.31 203.973 123.59 203.293C129.22 202.433 134.58 200.023 139.04 196.223L159.44 178.823C164.66 174.363 171.02 171.423 177.8 170.323L192.96 167.873H192.97L318.37 147.583L333.8 145.083C338.61 144.303 341.71 139.533 340.46 134.823C311.62 25.5229 220.39 -6.8671 158.93 1.1629C60.111 14.0829 0 61.8929 0 154.813ZM289.034 73.8399C288.863 71.0899 289.545 68.9469 291.122 68.1139C294.157 66.5109 299.328 70.3449 302.673 76.6779C306.018 83.0099 306.269 89.4429 303.234 91.0459C301.657 91.8789 299.503 91.2338 297.328 89.5428C295.244 88.3128 293.023 85.8599 291.336 82.6659C289.649 79.4719 288.875 76.2549 289.034 73.8399ZM236.977 86.5349C236.54 82.0649 237.862 77.5189 241.052 74.0389C247.191 67.3429 257.863 67.1359 264.889 73.5779C271.915 80.0189 272.634 90.6689 266.496 97.3659C263.306 100.846 258.891 102.556 254.4 102.509C250.11 103.129 245.5 101.842 241.957 98.5929C238.413 95.3439 236.731 90.8619 236.977 86.5349ZM106.795 192.612C106.795 187.963 110.564 184.194 115.213 184.194C119.862 184.194 123.631 187.963 123.631 192.612C123.631 197.261 119.862 201.03 115.213 201.03C110.563 201.03 106.795 197.261 106.795 192.612ZM34.227 241.737C34.227 237.519 36.553 234.1 39.421 234.1C42.29 234.1 44.615 237.519 44.615 241.737C44.615 245.955 42.289 249.374 39.421 249.374C36.552 249.375 34.227 245.956 34.227 241.737Z" fill="#1BBC9B"/>
<path d="M124.802 34.392C114.292 67.318 89.7402 98.666 55.5932 108.704C38.7232 113.663 21.9032 113.023 5.76318 108.84C20.7902 53.791 64.5902 20.874 129.337 6.354C129.488 15.828 127.645 25.487 124.802 34.392Z" fill="#2D3E50"/>
<path d="M106.795 192.612C106.795 197.261 110.564 201.03 115.213 201.03C119.862 201.03 123.631 197.261 123.631 192.612C123.631 187.963 119.862 184.194 115.213 184.194C110.563 184.194 106.795 187.963 106.795 192.612ZM110.604 191.919C110.604 189.313 112.717 187.2 115.323 187.2C117.929 187.2 120.042 189.313 120.042 191.919C120.042 194.525 117.929 196.638 115.323 196.638C112.716 196.637 110.604 194.525 110.604 191.919Z" fill="#2D3E50"/>
<path d="M115.322 196.638C117.928 196.638 120.041 194.525 120.041 191.919C120.041 189.313 117.928 187.2 115.322 187.2C112.716 187.2 110.603 189.313 110.603 191.919C110.603 194.525 112.716 196.638 115.322 196.638Z" fill="white"/>
<path d="M34.2271 241.737C34.2271 245.955 36.5531 249.374 39.4211 249.374C42.2901 249.374 44.6151 245.955 44.6151 241.737C44.6151 237.519 42.2891 234.1 39.4211 234.1C36.5521 234.1 34.2271 237.519 34.2271 241.737ZM35.472 242.376C35.472 239.993 36.882 238.062 38.621 238.062C40.36 238.062 41.7701 239.994 41.7701 242.376C41.7701 244.759 40.36 246.69 38.621 246.69C36.882 246.69 35.472 244.759 35.472 242.376Z" fill="#2D3E50"/>
<path d="M38.6212 246.69C40.3603 246.69 41.7702 244.759 41.7702 242.376C41.7702 239.993 40.3603 238.062 38.6212 238.062C36.882 238.062 35.4722 239.993 35.4722 242.376C35.4722 244.759 36.882 246.69 38.6212 246.69Z" fill="white"/>
<path d="M241.052 74.0389C247.191 67.3429 257.863 67.1359 264.889 73.5779C271.915 80.0189 272.634 90.6689 266.496 97.3659C263.306 100.846 258.891 102.556 254.4 102.509C257.499 102.061 260.432 100.625 262.67 98.1839C268.007 92.3629 267.385 83.1078 261.282 77.5128C255.179 71.9179 245.905 72.1008 240.569 77.9218C238.331 80.3628 237.154 83.4099 236.977 86.5359C236.54 82.0649 237.861 77.5179 241.052 74.0389Z" fill="#16A086"/>
<path d="M261.282 77.512C267.385 83.107 268.007 92.362 262.67 98.183C260.432 100.624 257.499 102.06 254.4 102.508C250.11 103.128 245.5 101.841 241.957 98.592C238.414 95.343 236.732 90.8619 236.978 86.5349C237.155 83.4089 238.331 80.363 240.57 77.921C245.905 72.1 255.179 71.917 261.282 77.512Z" fill="#2D3E50"/>
<path d="M291.122 68.114C294.157 66.511 299.328 70.345 302.673 76.678C306.018 83.01 306.269 89.443 303.234 91.046C301.657 91.879 299.503 91.234 297.328 89.543C298.833 90.432 300.267 90.687 301.373 90.103C304.011 88.71 303.795 83.121 300.889 77.621C297.984 72.121 293.49 68.791 290.852 70.185C289.746 70.769 289.148 72.098 289.033 73.842C288.863 71.09 289.545 68.947 291.122 68.114Z" fill="#16A086"/>
<path d="M290.852 70.1829C293.49 68.7899 297.984 72.1189 300.889 77.6189C303.794 83.1189 304.011 88.7079 301.373 90.1009C300.267 90.6849 298.833 90.4299 297.328 89.5409C295.244 88.3109 293.023 85.8579 291.336 82.6639C289.649 79.4709 288.876 76.2529 289.034 73.8389C289.148 72.0959 289.746 70.7669 290.852 70.1829Z" fill="#2D3E50"/>
<path d="M409.987 305V86.8182H456.116V176.839H549.76V86.8182H595.782V305H549.76V214.872H456.116V305H409.987ZM707.537 308.196C690.704 308.196 676.216 304.787 664.071 297.969C651.997 291.08 642.693 281.349 636.159 268.778C629.625 256.136 626.358 241.186 626.358 223.928C626.358 207.095 629.625 192.322 636.159 179.609C642.693 166.896 651.89 156.989 663.751 149.886C675.683 142.784 689.674 139.233 705.726 139.233C716.521 139.233 726.571 140.973 735.875 144.453C745.25 147.862 753.417 153.011 760.378 159.901C767.409 166.79 772.878 175.455 776.784 185.895C780.69 196.264 782.643 208.409 782.643 222.33V234.794H644.469V206.669H739.923C739.923 200.135 738.503 194.347 735.662 189.304C732.821 184.261 728.879 180.32 723.836 177.479C718.865 174.567 713.076 173.111 706.471 173.111C699.582 173.111 693.474 174.709 688.148 177.905C682.892 181.03 678.773 185.256 675.79 190.582C672.807 195.838 671.28 201.697 671.209 208.161V234.901C671.209 242.997 672.7 249.993 675.683 255.888C678.737 261.783 683.034 266.328 688.574 269.524C694.113 272.72 700.683 274.318 708.282 274.318C713.325 274.318 717.942 273.608 722.132 272.188C726.322 270.767 729.909 268.636 732.892 265.795C735.875 262.955 738.148 259.474 739.71 255.355L781.684 258.125C779.554 268.21 775.186 277.017 768.581 284.545C762.047 292.003 753.595 297.827 743.226 302.017C732.927 306.136 721.031 308.196 707.537 308.196ZM886.834 308.196C870.001 308.196 855.513 304.787 843.368 297.969C831.294 291.08 821.99 281.349 815.456 268.778C808.922 256.136 805.655 241.186 805.655 223.928C805.655 207.095 808.922 192.322 815.456 179.609C821.99 166.896 831.187 156.989 843.048 149.886C854.98 142.784 868.971 139.233 885.023 139.233C895.818 139.233 905.868 140.973 915.172 144.453C924.547 147.862 932.714 153.011 939.675 159.901C946.706 166.79 952.175 175.455 956.081 185.895C959.987 196.264 961.94 208.409 961.94 222.33V234.794H823.765V206.669H919.22C919.22 200.135 917.8 194.347 914.959 189.304C912.118 184.261 908.176 180.32 903.133 177.479C898.162 174.567 892.373 173.111 885.768 173.111C878.879 173.111 872.771 174.709 867.444 177.905C862.189 181.03 858.069 185.256 855.086 190.582C852.103 195.838 850.576 201.697 850.505 208.161V234.901C850.505 242.997 851.997 249.993 854.98 255.888C858.034 261.783 862.331 266.328 867.871 269.524C873.41 272.72 879.98 274.318 887.579 274.318C892.622 274.318 897.238 273.608 901.429 272.188C905.619 270.767 909.206 268.636 912.189 265.795C915.172 262.955 917.444 259.474 919.007 255.355L960.981 258.125C958.851 268.21 954.483 277.017 947.878 284.545C941.344 292.003 932.892 297.827 922.523 302.017C912.224 306.136 900.328 308.196 886.834 308.196ZM1036.94 86.8182V305H991.557V86.8182H1036.94ZM1073.29 305V141.364H1116.55V170.234H1118.47C1121.87 160.646 1127.56 153.082 1135.51 147.543C1143.47 142.003 1152.98 139.233 1164.06 139.233C1175.28 139.233 1184.84 142.038 1192.72 147.649C1200.6 153.189 1205.86 160.717 1208.49 170.234H1210.19C1213.53 160.859 1219.57 153.366 1228.3 147.756C1237.11 142.074 1247.51 139.233 1259.52 139.233C1274.79 139.233 1287.18 144.098 1296.7 153.828C1306.28 163.487 1311.08 177.195 1311.08 194.95V305H1265.8V203.899C1265.8 194.808 1263.39 187.99 1258.56 183.445C1253.73 178.899 1247.69 176.626 1240.45 176.626C1232.21 176.626 1225.78 179.254 1221.16 184.51C1216.55 189.695 1214.24 196.548 1214.24 205.071V305H1170.24V202.94C1170.24 194.915 1167.93 188.523 1163.32 183.764C1158.77 179.006 1152.77 176.626 1145.31 176.626C1140.27 176.626 1135.72 177.905 1131.68 180.462C1127.7 182.947 1124.54 186.463 1122.19 191.009C1119.85 195.483 1118.68 200.739 1118.68 206.776V305H1073.29Z" fill="#2D3E50"/>
</svg>
